{
  "asset": {
    "generator": "glTF-Transform v4.1.3",
    "version": "2.0"
  },
  "accessors": [
    {
      "type": "SCALAR",
      "componentType": 5123,
      "count": 576,
      "bufferView": 0,
      "byteOffset": 0
    },
    {
      "type": "SCALAR",
      "componentType": 5123,
      "count": 1044,
      "bufferView": 0,
      "byteOffset": 1152
    },
    {
      "type": "VEC3",
      "componentType": 5126,
      "count": 384,
      "max": [
        0.9946381449699402,
        0.8475431203842163,
        0.6998355984687805
      ],
      "min": [
        -0.9946381449699402,
        0.013628125190734863,
        -0.5501644015312195
      ],
      "bufferView": 1,
      "byteOffset": 0
    },
    {
      "type": "VEC3",
      "componentType": 5126,
      "count": 384,
      "bufferView": 1,
      "byteOffset": 12
    },
    {
      "type": "VEC2",
      "componentType": 5126,
      "count": 384,
      "bufferView": 1,
      "byteOffset": 24
    },
    {
      "type": "VEC3",
      "componentType": 5126,
      "count": 696,
      "max": [
        1.0258880853652954,
        1.4308581352233887,
        0.6998355984687805
      ],
      "min": [
        -1.0258880853652954,
        0.4939900040626526,
        -0.5501644015312195
      ],
      "bufferView": 2,
      "byteOffset": 0
    },
    {
      "type": "VEC2",
      "componentType": 5126,
      "count": 696,
      "bufferView": 2,
      "byteOffset": 12
    },
    {
      "type": "VEC3",
      "componentType": 5126,
      "count": 696,
      "bufferView": 2,
      "byteOffset": 20
    },
    {
      "type": "SCALAR",
      "componentType": 5126,
      "count": 85,
      "max": [
        6.791666507720947
      ],
      "min": [
        0
      ],
      "bufferView": 3,
      "byteOffset": 0
    },
    {
      "type": "VEC4",
      "componentType": 5126,
      "count": 85,
      "bufferView": 3,
      "byteOffset": 340
    },
    {
      "type": "SCALAR",
      "componentType": 5126,
      "count": 77,
      "max": [
        6.791666507720947
      ],
      "min": [
        0
      ],
      "bufferView": 3,
      "byteOffset": 1700
    },
    {
      "type": "VEC3",
      "componentType": 5126,
      "count": 77,
      "bufferView": 3,
      "byteOffset": 2008
    },
    {
      "type": "SCALAR",
      "componentType": 5126,
      "count": 101,
      "max": [
        6.875
      ],
      "min": [
        0
      ],
      "bufferView": 3,
      "byteOffset": 2932
    },
    {
      "type": "VEC4",
      "componentType": 5126,
      "count": 101,
      "bufferView": 3,
      "byteOffset": 3336
    },
    {
      "type": "SCALAR",
      "componentType": 5126,
      "count": 2,
      "max": [
        6.875
      ],
      "min": [
        0
      ],
      "bufferView": 3,
      "byteOffset": 4952
    },
    {
      "type": "VEC3",
      "componentType": 5126,
      "count": 2,
      "bufferView": 3,
      "byteOffset": 4960
    }
  ],
  "bufferViews": [
    {
      "buffer": 0,
      "byteOffset": 0,
      "byteLength": 3240,
      "target": 34963
    },
    {
      "buffer": 0,
      "byteOffset": 3240,
      "byteLength": 12288,
      "byteStride": 32,
      "target": 34962
    },
    {
      "buffer": 0,
      "byteOffset": 15528,
      "byteLength": 22272,
      "byteStride": 32,
      "target": 34962
    },
    {
      "buffer": 0,
      "byteOffset": 37800,
      "byteLength": 4984
    }
  ],
  "samplers": [
    {
      "magFilter": 9728,
      "minFilter": 9728,
      "wrapS": 33071,
      "wrapT": 33071
    }
  ],
  "textures": [
    {
      "source": 0,
      "sampler": 0
    }
  ],
  "images": [
    {
      "mimeType": "image/png",
      "uri": "baseColor.png"
    }
  ],
  "buffers": [
    {
      "uri": "crate_bronze.bin",
      "byteLength": 42784
    }
  ],
  "materials": [
    {
      "alphaMode": "MASK",
      "alphaCutoff": 0.05,
      "doubleSided": true,
      "pbrMetallicRoughness": {
        "metallicFactor": 0,
        "baseColorTexture": {
          "index": 0
        }
      }
    }
  ],
  "meshes": [
    {
      "primitives": [
        {
          "attributes": {
            "POSITION": 2,
            "NORMAL": 3,
            "TEXCOORD_0": 4
          },
          "mode": 4,
          "material": 0,
          "indices": 0
        }
      ]
    },
    {
      "primitives": [
        {
          "attributes": {
            "POSITION": 5,
            "TEXCOORD_0": 6,
            "NORMAL": 7
          },
          "mode": 4,
          "material": 0,
          "indices": 1
        }
      ]
    }
  ],
  "nodes": [
    {
      "name": "cube",
      "translation": [
        0,
        -0.0402575,
        0.025
      ],
      "mesh": 0
    },
    {
      "name": "cube",
      "translation": [
        0,
        -0.588659375,
        -0.65858625
      ],
      "mesh": 1
    },
    {
      "name": "top",
      "translation": [
        0,
        0.5484018749999999,
        0.6835862500000001
      ],
      "children": [
        1
      ]
    },
    {
      "name": "crate",
      "translation": [
        0,
        0.0402575,
        -0.025
      ],
      "children": [
        0,
        2
      ]
    },
    {
      "children": [
        3
      ]
    }
  ],
  "animations": [
    {
      "name": "open",
      "samplers": [
        {
          "input": 8,
          "output": 9,
          "interpolation": "LINEAR"
        },
        {
          "input": 10,
          "output": 11,
          "interpolation": "LINEAR"
        },
        {
          "input": 12,
          "output": 13,
          "interpolation": "LINEAR"
        },
        {
          "input": 14,
          "output": 15,
          "interpolation": "LINEAR"
        }
      ],
      "channels": [
        {
          "sampler": 0,
          "target": {
            "node": 3,
            "path": "rotation"
          }
        },
        {
          "sampler": 1,
          "target": {
            "node": 3,
            "path": "translation"
          }
        },
        {
          "sampler": 2,
          "target": {
            "node": 2,
            "path": "rotation"
          }
        },
        {
          "sampler": 3,
          "target": {
            "node": 2,
            "path": "translation"
          }
        }
      ]
    }
  ],
  "scenes": [
    {
      "name": "blockbench_export",
      "nodes": [
        4
      ]
    }
  ],
  "scene": 0
}