{
  "asset": {
    "generator": "glTF-Transform v4.1.3",
    "version": "2.0"
  },
  "accessors": [
    {
      "type": "SCALAR",
      "componentType": 5123,
      "count": 1980,
      "bufferView": 0,
      "byteOffset": 0
    },
    {
      "type": "SCALAR",
      "componentType": 5123,
      "count": 612,
      "bufferView": 0,
      "byteOffset": 3960
    },
    {
      "type": "VEC3",
      "componentType": 5126,
      "count": 1216,
      "max": [
        1.4723541736602783,
        1.5812499523162842,
        1.15625
      ],
      "min": [
        -0.47235411405563354,
        0.2866349518299103,
        -0.15625
      ],
      "bufferView": 1,
      "byteOffset": 0
    },
    {
      "type": "VEC3",
      "componentType": 5126,
      "count": 1216,
      "bufferView": 1,
      "byteOffset": 12
    },
    {
      "type": "VEC2",
      "componentType": 5126,
      "count": 1216,
      "bufferView": 1,
      "byteOffset": 24
    },
    {
      "type": "VEC3",
      "componentType": 5126,
      "count": 376,
      "max": [
        1.4375,
        0.9437500238418579,
        1.1875
      ],
      "min": [
        -0.4375,
        -0.02500000037252903,
        -0.1875
      ],
      "bufferView": 2,
      "byteOffset": 0
    },
    {
      "type": "VEC2",
      "componentType": 5126,
      "count": 376,
      "bufferView": 2,
      "byteOffset": 12
    },
    {
      "type": "VEC3",
      "componentType": 5126,
      "count": 376,
      "bufferView": 2,
      "byteOffset": 20
    },
    {
      "type": "SCALAR",
      "componentType": 5126,
      "count": 72,
      "max": [
        5.916669845581055
      ],
      "min": [
        0
      ],
      "bufferView": 3,
      "byteOffset": 0
    },
    {
      "type": "VEC4",
      "componentType": 5126,
      "count": 72,
      "bufferView": 3,
      "byteOffset": 288
    },
    {
      "type": "SCALAR",
      "componentType": 5126,
      "count": 67,
      "max": [
        5.916669845581055
      ],
      "min": [
        0
      ],
      "bufferView": 3,
      "byteOffset": 1440
    },
    {
      "type": "VEC3",
      "componentType": 5126,
      "count": 67,
      "bufferView": 3,
      "byteOffset": 1708
    },
    {
      "type": "SCALAR",
      "componentType": 5126,
      "count": 87,
      "max": [
        6
      ],
      "min": [
        0
      ],
      "bufferView": 3,
      "byteOffset": 2512
    },
    {
      "type": "VEC4",
      "componentType": 5126,
      "count": 87,
      "bufferView": 3,
      "byteOffset": 2860
    },
    {
      "type": "SCALAR",
      "componentType": 5126,
      "count": 2,
      "max": [
        6
      ],
      "min": [
        0
      ],
      "bufferView": 3,
      "byteOffset": 4252
    },
    {
      "type": "VEC3",
      "componentType": 5126,
      "count": 2,
      "bufferView": 3,
      "byteOffset": 4260
    }
  ],
  "bufferViews": [
    {
      "buffer": 0,
      "byteOffset": 0,
      "byteLength": 5184,
      "target": 34963
    },
    {
      "buffer": 0,
      "byteOffset": 5184,
      "byteLength": 38912,
      "byteStride": 32,
      "target": 34962
    },
    {
      "buffer": 0,
      "byteOffset": 44096,
      "byteLength": 12032,
      "byteStride": 32,
      "target": 34962
    },
    {
      "buffer": 0,
      "byteOffset": 56128,
      "byteLength": 4284
    }
  ],
  "samplers": [
    {
      "magFilter": 9728,
      "minFilter": 9728,
      "wrapS": 33071,
      "wrapT": 33071
    }
  ],
  "textures": [
    {
      "source": 0,
      "sampler": 0
    }
  ],
  "images": [
    {
      "mimeType": "image/png",
      "uri": "baseColor.png"
    }
  ],
  "buffers": [
    {
      "uri": "crate-gold.bin",
      "byteLength": 60412
    }
  ],
  "materials": [
    {
      "alphaMode": "MASK",
      "alphaCutoff": 0.05,
      "doubleSided": true,
      "pbrMetallicRoughness": {
        "metallicFactor": 0,
        "baseColorTexture": {
          "index": 0
        }
      }
    }
  ],
  "meshes": [
    {
      "primitives": [
        {
          "attributes": {
            "POSITION": 2,
            "NORMAL": 3,
            "TEXCOORD_0": 4
          },
          "mode": 4,
          "material": 0,
          "indices": 0
        }
      ]
    },
    {
      "primitives": [
        {
          "attributes": {
            "POSITION": 5,
            "TEXCOORD_0": 6,
            "NORMAL": 7
          },
          "mode": 4,
          "material": 0,
          "indices": 1
        }
      ]
    }
  ],
  "nodes": [
    {
      "name": "cube",
      "translation": [
        -0.5,
        -0.838659375,
        -1.09608625
      ],
      "mesh": 0
    },
    {
      "name": "top",
      "translation": [
        0,
        0.7984018749999999,
        0.6210862500000001
      ],
      "children": [
        0
      ]
    },
    {
      "name": "cube",
      "translation": [
        -0.5,
        -0.0402575,
        -0.475
      ],
      "mesh": 1
    },
    {
      "name": "crate",
      "translation": [
        0,
        0.0402575,
        -0.025
      ],
      "children": [
        1,
        2
      ]
    },
    {
      "children": [
        3
      ]
    }
  ],
  "animations": [
    {
      "name": "open",
      "samplers": [
        {
          "input": 8,
          "output": 9,
          "interpolation": "LINEAR"
        },
        {
          "input": 10,
          "output": 11,
          "interpolation": "LINEAR"
        },
        {
          "input": 12,
          "output": 13,
          "interpolation": "LINEAR"
        },
        {
          "input": 14,
          "output": 15,
          "interpolation": "LINEAR"
        }
      ],
      "channels": [
        {
          "sampler": 0,
          "target": {
            "node": 3,
            "path": "rotation"
          }
        },
        {
          "sampler": 1,
          "target": {
            "node": 3,
            "path": "translation"
          }
        },
        {
          "sampler": 2,
          "target": {
            "node": 1,
            "path": "rotation"
          }
        },
        {
          "sampler": 3,
          "target": {
            "node": 1,
            "path": "translation"
          }
        }
      ]
    }
  ],
  "scenes": [
    {
      "name": "blockbench_export",
      "nodes": [
        4
      ]
    }
  ],
  "scene": 0
}