{
  "asset": {
    "generator": "glTF-Transform v4.1.3",
    "version": "2.0"
  },
  "accessors": [
    {
      "type": "SCALAR",
      "componentType": 5123,
      "count": 8448,
      "bufferView": 0,
      "byteOffset": 0
    },
    {
      "name": "POSITION",
      "type": "VEC3",
      "componentType": 5126,
      "count": 5018,
      "max": [
        22.5,
        47.5,
        0.5
      ],
      "min": [
        -0.5,
        -0.5,
        -0.5
      ],
      "bufferView": 1,
      "byteOffset": 0
    },
    {
      "name": "TEXCOORD_0",
      "type": "VEC2",
      "componentType": 5126,
      "count": 5018,
      "bufferView": 1,
      "byteOffset": 12
    }
  ],
  "bufferViews": [
    {
      "buffer": 0,
      "byteOffset": 0,
      "byteLength": 16896,
      "target": 34963
    },
    {
      "buffer": 0,
      "byteOffset": 16896,
      "byteLength": 100360,
      "byteStride": 20,
      "target": 34962
    }
  ],
  "samplers": [
    {
      "magFilter": 9729,
      "minFilter": 9987,
      "wrapS": 10497,
      "wrapT": 10497
    }
  ],
  "textures": [
    {
      "source": 0,
      "sampler": 0
    }
  ],
  "images": [
    {
      "mimeType": "image/png",
      "uri": "baseColor.png"
    }
  ],
  "buffers": [
    {
      "uri": "dungeon-key-named-nodes.bin",
      "byteLength": 117256
    }
  ],
  "materials": [
    {
      "name": "name",
      "doubleSided": true,
      "pbrMetallicRoughness": {
        "metallicFactor": 0.25,
        "baseColorTexture": {
          "index": 0
        }
      }
    }
  ],
  "meshes": [
    {
      "name": "name",
      "primitives": [
        {
          "attributes": {
            "POSITION": 1,
            "TEXCOORD_0": 2
          },
          "mode": 4,
          "material": 0,
          "indices": 0
        }
      ]
    }
  ],
  "nodes": [
    {
      "name": "dungeon-key_23x48x1",
      "mesh": 0
    }
  ],
  "scenes": [
    {
      "name": "Scene",
      "nodes": [
        0
      ]
    }
  ],
  "scene": 0
}