{
  "asset": {
    "generator": "glTF-Transform v4.1.3",
    "version": "2.0"
  },
  "accessors": [
    {
      "type": "SCALAR",
      "componentType": 5123,
      "count": 504,
      "bufferView": 0,
      "byteOffset": 0
    },
    {
      "type": "SCALAR",
      "componentType": 5123,
      "count": 576,
      "bufferView": 0,
      "byteOffset": 1008
    },
    {
      "type": "VEC3",
      "componentType": 5126,
      "count": 328,
      "max": [
        0.84375,
        0.9312499761581421,
        0.6000000238418579
      ],
      "min": [
        -0.84375,
        -0.0031250000465661287,
        -0.5874999761581421
      ],
      "bufferView": 1,
      "byteOffset": 0
    },
    {
      "type": "VEC3",
      "componentType": 5126,
      "count": 328,
      "bufferView": 1,
      "byteOffset": 12
    },
    {
      "type": "VEC2",
      "componentType": 5126,
      "count": 328,
      "bufferView": 1,
      "byteOffset": 24
    },
    {
      "type": "VEC3",
      "componentType": 5126,
      "count": 368,
      "max": [
        0.84375,
        1.212499976158142,
        0.612500011920929
      ],
      "min": [
        -0.84375,
        0.48124998807907104,
        -0.612500011920929
      ],
      "bufferView": 2,
      "byteOffset": 0
    },
    {
      "type": "VEC2",
      "componentType": 5126,
      "count": 368,
      "bufferView": 2,
      "byteOffset": 12
    },
    {
      "type": "VEC3",
      "componentType": 5126,
      "count": 368,
      "bufferView": 2,
      "byteOffset": 20
    },
    {
      "type": "SCALAR",
      "componentType": 5126,
      "count": 87,
      "max": [
        6.833333492279053
      ],
      "min": [
        0
      ],
      "bufferView": 3,
      "byteOffset": 0
    },
    {
      "type": "VEC4",
      "componentType": 5126,
      "count": 87,
      "bufferView": 3,
      "byteOffset": 348
    },
    {
      "type": "SCALAR",
      "componentType": 5126,
      "count": 77,
      "max": [
        6.833333492279053
      ],
      "min": [
        0
      ],
      "bufferView": 3,
      "byteOffset": 1740
    },
    {
      "type": "VEC3",
      "componentType": 5126,
      "count": 77,
      "bufferView": 3,
      "byteOffset": 2048
    },
    {
      "type": "SCALAR",
      "componentType": 5126,
      "count": 103,
      "max": [
        6.916666507720947
      ],
      "min": [
        0
      ],
      "bufferView": 3,
      "byteOffset": 2972
    },
    {
      "type": "VEC4",
      "componentType": 5126,
      "count": 103,
      "bufferView": 3,
      "byteOffset": 3384
    },
    {
      "type": "SCALAR",
      "componentType": 5126,
      "count": 2,
      "max": [
        6.916666507720947
      ],
      "min": [
        0
      ],
      "bufferView": 3,
      "byteOffset": 5032
    },
    {
      "type": "VEC3",
      "componentType": 5126,
      "count": 2,
      "bufferView": 3,
      "byteOffset": 5040
    }
  ],
  "bufferViews": [
    {
      "buffer": 0,
      "byteOffset": 0,
      "byteLength": 2160,
      "target": 34963
    },
    {
      "buffer": 0,
      "byteOffset": 2160,
      "byteLength": 10496,
      "byteStride": 32,
      "target": 34962
    },
    {
      "buffer": 0,
      "byteOffset": 12656,
      "byteLength": 11776,
      "byteStride": 32,
      "target": 34962
    },
    {
      "buffer": 0,
      "byteOffset": 24432,
      "byteLength": 5064
    }
  ],
  "samplers": [
    {
      "magFilter": 9728,
      "minFilter": 9728,
      "wrapS": 33071,
      "wrapT": 33071
    }
  ],
  "textures": [
    {
      "source": 0,
      "sampler": 0
    }
  ],
  "images": [
    {
      "mimeType": "image/png",
      "uri": "baseColor.png"
    }
  ],
  "buffers": [
    {
      "uri": "crate_iron.bin",
      "byteLength": 29496
    }
  ],
  "materials": [
    {
      "alphaMode": "MASK",
      "alphaCutoff": 0.05,
      "doubleSided": true,
      "pbrMetallicRoughness": {
        "metallicFactor": 0,
        "baseColorTexture": {
          "index": 0
        }
      }
    }
  ],
  "meshes": [
    {
      "primitives": [
        {
          "attributes": {
            "POSITION": 2,
            "NORMAL": 3,
            "TEXCOORD_0": 4
          },
          "mode": 4,
          "material": 0,
          "indices": 0
        }
      ]
    },
    {
      "primitives": [
        {
          "attributes": {
            "POSITION": 5,
            "TEXCOORD_0": 6,
            "NORMAL": 7
          },
          "mode": 4,
          "material": 0,
          "indices": 1
        }
      ]
    }
  ],
  "nodes": [
    {
      "name": "cube",
      "translation": [
        0,
        -0.0402575,
        0.025
      ],
      "mesh": 0
    },
    {
      "name": "cube",
      "translation": [
        0,
        -0.838659375,
        -0.59608625
      ],
      "mesh": 1
    },
    {
      "name": "top",
      "translation": [
        0,
        0.7984018749999999,
        0.6210862500000001
      ],
      "children": [
        1
      ]
    },
    {
      "name": "crate",
      "translation": [
        0,
        0.0402575,
        -0.025
      ],
      "children": [
        0,
        2
      ]
    },
    {
      "children": [
        3
      ]
    }
  ],
  "animations": [
    {
      "name": "open",
      "samplers": [
        {
          "input": 8,
          "output": 9,
          "interpolation": "LINEAR"
        },
        {
          "input": 10,
          "output": 11,
          "interpolation": "LINEAR"
        },
        {
          "input": 12,
          "output": 13,
          "interpolation": "LINEAR"
        },
        {
          "input": 14,
          "output": 15,
          "interpolation": "LINEAR"
        }
      ],
      "channels": [
        {
          "sampler": 0,
          "target": {
            "node": 3,
            "path": "rotation"
          }
        },
        {
          "sampler": 1,
          "target": {
            "node": 3,
            "path": "translation"
          }
        },
        {
          "sampler": 2,
          "target": {
            "node": 2,
            "path": "rotation"
          }
        },
        {
          "sampler": 3,
          "target": {
            "node": 2,
            "path": "translation"
          }
        }
      ]
    }
  ],
  "scenes": [
    {
      "name": "blockbench_export",
      "nodes": [
        4
      ]
    }
  ],
  "scene": 0
}